<mxfile host="Electron" modified="2024-04-30T18:50:13.008Z" agent="Mozilla/5.0 (Windows NT 10.0; Win64; x64) AppleWebKit/537.36 (KHTML, like Gecko) draw.io/23.1.5 Chrome/120.0.6099.109 Electron/28.1.0 Safari/537.36" etag="uCWs8qIrv3Iu3qmnDSwA" version="23.1.5" type="device">
  <diagram name="Page-1" id="GxB8sj7qcgSX2dFPuLkf">
    <mxGraphModel dx="724" dy="434" grid="0" gridSize="10" guides="1" tooltips="1" connect="1" arrows="1" fold="1" page="1" pageScale="1" pageWidth="827" pageHeight="1169" math="0" shadow="0">
      <root>
        <mxCell id="0" />
        <mxCell id="1" parent="0" />
        <mxCell id="eQ6d3NiaBFN7KzhV2Cni-1" value=":System" style="shape=umlLifeline;perimeter=lifelinePerimeter;whiteSpace=wrap;html=1;container=1;dropTarget=0;collapsible=0;recursiveResize=0;outlineConnect=0;portConstraint=eastwest;newEdgeStyle={&quot;curved&quot;:0,&quot;rounded&quot;:0};" vertex="1" parent="1">
          <mxGeometry x="545" y="111" width="100" height="350" as="geometry" />
        </mxCell>
        <mxCell id="eQ6d3NiaBFN7KzhV2Cni-2" value="" style="shape=umlLifeline;perimeter=lifelinePerimeter;whiteSpace=wrap;html=1;container=1;dropTarget=0;collapsible=0;recursiveResize=0;outlineConnect=0;portConstraint=eastwest;newEdgeStyle={&quot;curved&quot;:0,&quot;rounded&quot;:0};participant=umlActor;" vertex="1" parent="1">
          <mxGeometry x="277" y="104" width="20" height="358" as="geometry" />
        </mxCell>
        <mxCell id="eQ6d3NiaBFN7KzhV2Cni-3" value="&lt;b&gt;Start logging in with mail and password ()&lt;/b&gt;" style="html=1;verticalAlign=bottom;endArrow=block;curved=0;rounded=0;strokeWidth=2;" edge="1" parent="1">
          <mxGeometry width="80" relative="1" as="geometry">
            <mxPoint x="286.83333333333337" y="207" as="sourcePoint" />
            <mxPoint x="594.5" y="207" as="targetPoint" />
            <Array as="points">
              <mxPoint x="318.5" y="207" />
              <mxPoint x="470.5" y="207" />
            </Array>
          </mxGeometry>
        </mxCell>
        <mxCell id="eQ6d3NiaBFN7KzhV2Cni-5" value="" style="html=1;labelBackgroundColor=#ffffff;startArrow=none;startFill=0;startSize=6;endArrow=classic;endFill=1;endSize=6;jettySize=auto;orthogonalLoop=1;strokeWidth=2;dashed=1;fontSize=14;rounded=0;" edge="1" parent="1">
          <mxGeometry width="60" height="60" relative="1" as="geometry">
            <mxPoint x="594.5" y="280" as="sourcePoint" />
            <mxPoint x="286.83333333333337" y="280" as="targetPoint" />
          </mxGeometry>
        </mxCell>
        <mxCell id="eQ6d3NiaBFN7KzhV2Cni-6" value="&lt;b&gt;Log the actor in ()&lt;/b&gt;" style="edgeLabel;html=1;align=center;verticalAlign=middle;resizable=0;points=[];" vertex="1" connectable="0" parent="eQ6d3NiaBFN7KzhV2Cni-5">
          <mxGeometry x="0.093" y="-1" relative="1" as="geometry">
            <mxPoint x="13" y="-8" as="offset" />
          </mxGeometry>
        </mxCell>
        <mxCell id="eQ6d3NiaBFN7KzhV2Cni-7" value="" style="html=1;labelBackgroundColor=#ffffff;startArrow=none;startFill=0;startSize=6;endArrow=classic;endFill=1;endSize=6;jettySize=auto;orthogonalLoop=1;strokeWidth=2;dashed=1;fontSize=14;rounded=0;" edge="1" parent="1">
          <mxGeometry width="60" height="60" relative="1" as="geometry">
            <mxPoint x="595" y="361" as="sourcePoint" />
            <mxPoint x="287" y="361" as="targetPoint" />
          </mxGeometry>
        </mxCell>
        <mxCell id="eQ6d3NiaBFN7KzhV2Cni-8" value="&lt;b&gt;Redirect the actor to dashboard based on actor role&lt;/b&gt;" style="edgeLabel;html=1;align=center;verticalAlign=middle;resizable=0;points=[];" vertex="1" connectable="0" parent="eQ6d3NiaBFN7KzhV2Cni-7">
          <mxGeometry x="0.093" y="-1" relative="1" as="geometry">
            <mxPoint x="20" y="-8" as="offset" />
          </mxGeometry>
        </mxCell>
        <mxCell id="eQ6d3NiaBFN7KzhV2Cni-9" value="&lt;b&gt;Start using the system feature&lt;/b&gt;" style="html=1;verticalAlign=bottom;endArrow=block;curved=0;rounded=0;strokeWidth=2;" edge="1" parent="1">
          <mxGeometry width="80" relative="1" as="geometry">
            <mxPoint x="287" y="428" as="sourcePoint" />
            <mxPoint x="595" y="428" as="targetPoint" />
            <Array as="points">
              <mxPoint x="318.5" y="428" />
              <mxPoint x="470.5" y="428" />
            </Array>
          </mxGeometry>
        </mxCell>
      </root>
    </mxGraphModel>
  </diagram>
</mxfile>
